<svg xmlns="http://www.w3.org/2000/svg" viewBox="0 0 32 32">
  <defs>
    <linearGradient id="gold" x1="0%" y1="0%" x2="100%" y2="100%">
      <stop offset="0%" style="stop-color:#b45309"/>
      <stop offset="50%" style="stop-color:#d97706"/>
      <stop offset="100%" style="stop-color:#f59e0b"/>
    </linearGradient>
  </defs>
  <!-- Background circle -->
  <circle cx="16" cy="16" r="15" fill="url(#gold)"/>
  <!-- Stylized G letter -->
  <path d="M16 6c-5.5 0-10 4.5-10 10s4.5 10 10 10c4 0 7.5-2.4 9-5.8h-5c-1 1.2-2.4 1.8-4 1.8-3.3 0-6-2.7-6-6s2.7-6 6-6c2 0 3.8 1 4.8 2.5h4.5C23.8 8.6 20.2 6 16 6z" fill="#fefce8"/>
  <!-- Small leaf accent -->
  <path d="M21 14c1.5-2 3-2.5 4-2.5-0.5 1.5-1.5 3-3 4-0.5-0.5-0.8-1-1-1.5z" fill="#22c55e"/>
</svg>
